<svg xmlns="http://www.w3.org/2000/svg" width="16" height="16" viewBox="0 0 16 16">
    <defs>
        <linearGradient id="a" x1="76.376%" x2="25.154%" y1="10.362%" y2="91.064%">
            <stop offset="0%" stop-color="#FD8B25"/>
            <stop offset="100%" stop-color="#FC061A"/>
        </linearGradient>
    </defs>
    <g fill="none" fill-rule="evenodd">
        <path fill="#FBFBFB" d="M13.067 9.32a2.691 2.691 0 0 1-1.37 2.333l-2.327 1.32a2.78 2.78 0 0 1-2.74 0l-2.327-1.32a2.688 2.688 0 0 1-1.37-2.334V6.68c0-.961.523-1.85 1.37-2.332l2.327-1.32a2.78 2.78 0 0 1 2.74 0l2.326 1.32a2.689 2.689 0 0 1 1.37 2.333v2.64z"/>
        <path fill="url(#a)" fill-rule="nonzero" d="M12.583 9.237V6.762a2.532 2.532 0 0 0-1.24-2.187L9.24 3.34a2.438 2.438 0 0 0-2.479 0L4.656 4.576a2.534 2.534 0 0 0-1.24 2.186v2.475c0 .902.474 1.736 1.24 2.187l2.104 1.237a2.438 2.438 0 0 0 2.48 0l2.104-1.237a2.534 2.534 0 0 0 1.24-2.187zm3 0a5.535 5.535 0 0 1-2.719 4.774l-2.102 1.235a5.437 5.437 0 0 1-5.522.002l-2.106-1.239A5.536 5.536 0 0 1 .417 9.237V6.762c0-1.96 1.031-3.78 2.719-4.772L5.238.754A5.437 5.437 0 0 1 10.76.752l2.105 1.238a5.523 5.523 0 0 1 2.718 4.772v2.475z"/>
    </g>
</svg>
